<?xml version="1.0" encoding="UTF-8" standalone="no"?>
<!-- Created with Inkscape (http://www.inkscape.org/) -->

<svg
   xmlns:dc="http://purl.org/dc/elements/1.1/"
   xmlns:cc="http://creativecommons.org/ns#"
   xmlns:rdf="http://www.w3.org/1999/02/22-rdf-syntax-ns#"
   xmlns:svg="http://www.w3.org/2000/svg"
   xmlns="http://www.w3.org/2000/svg"
   xmlns:sodipodi="http://sodipodi.sourceforge.net/DTD/sodipodi-0.dtd"
   xmlns:inkscape="http://www.inkscape.org/namespaces/inkscape"
   width="40"
   height="40"
   viewBox="0 0 10.583333 10.583334"
   version="1.1"
   id="svg8"
   inkscape:version="0.92.4 (5da689c313, 2019-01-14)"
   sodipodi:docname="pluginIcon.svg">
  <defs
     id="defs2" />
  <sodipodi:namedview
     id="base"
     pagecolor="#ffffff"
     bordercolor="#666666"
     borderopacity="1.0"
     inkscape:pageopacity="0.0"
     inkscape:pageshadow="2"
     inkscape:zoom="15.968"
     inkscape:cx="36.795205"
     inkscape:cy="24.421125"
     inkscape:document-units="px"
     inkscape:current-layer="layer1"
     showgrid="false"
     units="px"
     inkscape:window-width="1920"
     inkscape:window-height="1021"
     inkscape:window-x="1600"
     inkscape:window-y="0"
     inkscape:window-maximized="1"
     showguides="true"
     inkscape:guide-bbox="true"
     inkscape:snap-page="true"
     inkscape:snap-grids="false"
     inkscape:snap-to-guides="true" />
  <metadata
     id="metadata5">
    <rdf:RDF>
      <cc:Work
         rdf:about="">
        <dc:format>image/svg+xml</dc:format>
        <dc:type
           rdf:resource="http://purl.org/dc/dcmitype/StillImage" />
        <dc:title></dc:title>
      </cc:Work>
    </rdf:RDF>
  </metadata>
  <g
     inkscape:label="Layer 1"
     inkscape:groupmode="layer"
     id="layer1"
     transform="translate(-24.081062,-285.97363)">
    <path
       style="fill:#53829e;fill-opacity:1;fill-rule:evenodd;stroke:none;stroke-width:0.12615313"
       d="m 27.187224,288.10292 c -0.708781,0.0795 -1.169076,0.51582 -1.359453,1.28856 -0.129442,0.52587 -1.015389,4.61113 -1.015389,4.68234 0,0.14527 0.06197,0.16722 0.496468,0.1764 0.664781,0.014 0.594353,0.10991 0.877866,-1.19452 0.119179,-0.54833 0.234896,-1.04467 0.257346,-1.10298 0.07184,-0.18707 -1.32e-4,-0.17938 1.688503,-0.17938 1.913394,0 1.817823,0.0393 1.374849,-0.56619 -0.355481,-0.48567 -0.189607,-0.43643 -1.51609,-0.45106 -1.426289,-0.0158 -1.318913,0.063 -1.114297,-0.81778 0.193971,-0.83476 0.0499,-0.77906 2.055921,-0.79494 1.694023,-0.0134 1.615,-0.007 1.689664,-0.14701 0.01863,-0.0351 0.06645,-0.21622 0.106218,-0.40243 0.08454,-0.39536 0.07556,-0.44796 -0.08454,-0.49101 -0.115714,-0.031 -3.179966,-0.031 -3.457066,0"
       id="path4103"
       inkscape:connector-curvature="0" />
    <path
       style="fill:#53829e;fill-opacity:1;fill-rule:evenodd;stroke:none;stroke-width:0.12615313"
       d="m 29.321667,289.74082 c -0.121487,0.0684 -0.111999,0.0847 0.758941,1.30059 0.489928,0.68392 0.527641,0.75413 0.469275,0.87261 -0.02259,0.0459 -0.27582,0.32055 -0.562538,0.61035 -1.883632,1.90325 -1.785623,1.7132 -0.889796,1.72523 0.744192,0.01 0.632449,0.0671 1.412051,-0.72299 0.345089,-0.34959 0.659776,-0.64881 0.699545,-0.66469 0.112765,-0.0454 0.170367,0.0134 0.60038,0.61271 0.609104,0.84891 0.508656,0.77981 1.13418,0.77981 0.737908,0 0.736239,0.0248 0.06312,-0.91912 -0.918277,-1.28819 -0.882102,-1.23311 -0.882102,-1.33955 0,-0.11141 -0.04,-0.0669 1.10904,-1.23075 1.111346,-1.12568 1.098388,-1.051 0.182038,-1.051 h -0.590633 l -0.101859,0.0682 c -0.05606,0.0376 -0.347656,0.31672 -0.648231,0.62052 -0.561508,0.56781 -0.621551,0.61222 -0.731494,0.54262 -0.06401,-0.0406 -0.08685,-0.0705 -0.573309,-0.74768 -0.163049,-0.22714 -0.317638,-0.41571 -0.360869,-0.4404 -0.08788,-0.0502 -1.003331,-0.064 -1.087741,-0.0165"
       id="path4097"
       inkscape:connector-curvature="0" />
  </g>
</svg>
